<svg width="180" height="180" viewBox="0 0 180 180" fill="none" xmlns="http://www.w3.org/2000/svg">
  <defs>
    <linearGradient id="bg" x1="18" y1="16" x2="162" y2="164" gradientUnits="userSpaceOnUse">
      <stop stop-color="#2FD4A8" />
      <stop offset="1" stop-color="#1D7CF2" />
    </linearGradient>
    <linearGradient id="mainBubble" x1="42" y1="42" x2="124" y2="122" gradientUnits="userSpaceOnUse">
      <stop stop-color="#FFFFFF" stop-opacity="0.98" />
      <stop offset="1" stop-color="#EAF4FF" stop-opacity="0.96" />
    </linearGradient>
    <linearGradient id="replyBubble" x1="82" y1="82" x2="146" y2="146" gradientUnits="userSpaceOnUse">
      <stop stop-color="#DDF2FF" stop-opacity="0.95" />
      <stop offset="1" stop-color="#FFFFFF" stop-opacity="0.92" />
    </linearGradient>
    <filter id="shadow" x="25" y="29" width="131" height="126" filterUnits="userSpaceOnUse" color-interpolation-filters="sRGB">
      <feFlood flood-opacity="0" result="BackgroundImageFix" />
      <feColorMatrix in="SourceAlpha" type="matrix" values="0 0 0 0 0 0 0 0 0 0 0 0 0 0 0 0 0 0 127 0" result="hardAlpha" />
      <feOffset dy="6" />
      <feGaussianBlur stdDeviation="6" />
      <feComposite in2="hardAlpha" operator="out" />
      <feColorMatrix type="matrix" values="0 0 0 0 0.0196 0 0 0 0 0.1255 0 0 0 0 0.2157 0 0 0 0.24 0" />
      <feBlend mode="normal" in2="BackgroundImageFix" result="effect1_dropShadow_1_1" />
      <feBlend mode="normal" in="SourceGraphic" in2="effect1_dropShadow_1_1" result="shape" />
    </filter>
  </defs>

  <rect x="8" y="8" width="164" height="164" rx="40" fill="url(#bg)" />
  <rect x="8" y="8" width="164" height="164" rx="40" fill="white" fill-opacity="0.08" />
  <path d="M40 45C40 38.373 45.373 33 52 33H128C134.627 33 140 38.373 140 45V59" stroke="white" stroke-opacity="0.24" stroke-width="2" stroke-linecap="round" />

  <g filter="url(#shadow)">
    <path d="M44 58C44 50.268 50.268 44 58 44H101C108.732 44 115 50.268 115 58V93C115 100.732 108.732 107 101 107H81L64 121V107H58C50.268 107 44 100.732 44 93V58Z" fill="url(#mainBubble)" />
    <path d="M78 88C78 80.268 84.268 74 92 74H123C130.732 74 137 80.268 137 88V111C137 118.732 130.732 125 123 125H112L96 139V125H92C84.268 125 78 118.732 78 111V88Z" fill="url(#replyBubble)" />
  </g>

  <circle cx="64" cy="76" r="4" fill="#2AA5DF" />
  <circle cx="79" cy="76" r="4" fill="#2AA5DF" />
  <circle cx="94" cy="76" r="4" fill="#2AA5DF" />

  <path d="M95 98H121" stroke="#2FA6E6" stroke-width="4" stroke-linecap="round" />
  <path d="M95 108H114" stroke="#2FA6E6" stroke-width="4" stroke-linecap="round" opacity="0.85" />
</svg>